<?xml version="1.0"?>
<svg id="Layer_2" data-name="Layer 2" xmlns="http://www.w3.org/2000/svg" viewBox="0 0 583.24 209">
  <defs>
    
  </defs>
  <g id="Layer_1-2" data-name="Layer 1">
    <g>
      <path class="cls-1" d="M114,192.25c-10.75,9.25-25.5,16.75-46.5,16.75s-36.75-5.5-49-17.75S0,162.75,0,142.75v-2.5c1-40,28.25-68,68.5-68,18.25,0,34.25,6.75,42.25,15,2.25,2.25,3.5,5,3.5,7.5,0,3.25-2.5,6.25-6,6.25-2.5,0-4.75-1.5-6.25-4-5.5-9.75-17.25-17.25-34.25-17.25-29,0-51,23-51,60.25s21,60,51.5,60c17.5,0,26.75-4.5,39.75-15.5,1.75-1.5,3.5-2.25,5-2.25,2.5,0,4.25,1.75,4.25,4.25,0,1.75-1,3.75-3.25,5.75Z"></path>
      <path class="cls-1" d="M215,207.25c-2,0-4.25-.75-5.75-2.75l-46.5-58.25c-1.75-2.25-3-4.75-3-7,0-.75,0-1.25.25-2,.75-2.75,3.5-3.75,6-3.75h3.25c22,0,33-8.75,33-25.5s-11-25.5-33-25.5h-15.5c-4.5,0-6.75,2.5-6.75,6.75v110.75c0,4-3.25,7.25-7.25,7.25s-7.25-3.25-7.25-7.25v-118c0-4,3.25-7.25,7.25-7.25h32.25c32.25,0,46,14,46,33.25,0,18.25-12.5,31.5-41.25,32.75l44,55c1,1.25,1.5,2.75,1.5,4.25,0,4.25-2.75,7.25-7.25,7.25Z"></path>
      <path class="cls-1" d="M312.25,206.25h-48c-18.75,0-25.75-7-25.75-25.75v-80c0-18.75,7-25.75,25.75-25.75h48c2.25,0,3.75,1.75,3.75,4,0,2-1.5,3.75-3.75,3.75h-44.5c-9.5,0-14.75,5.25-14.75,14.75v33.25c0,2,1,2.75,3,2.75h56.25c2,0,3.75,1.75,3.75,4,0,2-1.75,3.75-3.75,3.75h-56.25c-2,0-3,1-3,3v39.75c0,9.5,5.25,15,14.75,15h44.5c2.25,0,3.75,1.5,3.75,3.75,0,2-1.5,3.75-3.75,3.75Z"></path>
      <path class="cls-1" d="M442.74,199c0,4-3.25,7.25-7.25,7.25h-38c-40.75,0-68-26.5-68-65.75s27.25-65.75,68-65.75h28c2,0,2.75-.75,2.75-3V7.25c0-4,3.25-7.25,7.25-7.25s7.25,3.25,7.25,7.25v191.75ZM428.24,85.5c0-2-.75-2.75-2.75-2.75h-28c-30.75,0-51.25,23.25-51.25,58s20.5,58,51.25,58h24c4.5,0,6.75-2.5,6.75-6.75v-106.5Z"></path>
      <path class="cls-1" d="M574.74,207.5c-2.5,0-5.25-1.25-6.75-3.75l-46-68.75c-.5-1-1.25-1.25-2-1.25s-1.5.25-2.25,1.25l-49,70.5c-1,1.25-2.5,2-4,2-2.75,0-5-1.5-5-4.5,0-1,.25-2.25,1-3.25l50.5-72.5c1-1.25,1.5-2.75,1.5-4,0-1.5-.5-2.75-1.5-4.25l-46.5-68.5c-1-1.5-1.5-3.25-1.5-5,0-4.75,3.5-8,8.25-8,2.75,0,5.5,1.25,7,3.5l43.75,64.5c.5.75,1.25,1.25,2,1.25s1.75-.25,2.25-1.25l46-66c1-1.5,2.75-2.25,4.25-2.25,3.25,0,4.75,2.25,4.75,4.75,0,1-.5,2.25-1,3l-47.5,68.25c-.75,1.25-1.25,2.75-1.25,4,0,1.5.5,2.75,1.25,4l48.75,73.25c1,1.5,1.5,3,1.5,4.5,0,5-3.75,8.5-8.5,8.5Z"></path>
    </g>
  </g>
</svg>